<svg width="46" height="46" viewBox="0 0 46 46" fill="none" xmlns="http://www.w3.org/2000/svg">
<path d="M32.1523 18.2463C31.1338 17.2469 29.9484 16.5156 28.6879 16.0443C29.4225 13.9236 32.027 13.1517 32.027 13.1517C32.027 13.1517 25.9498 10.056 19.2382 11.291C17.001 11.6404 14.8556 12.9892 13.2862 14.7686C9.88032 18.6282 10.3311 24.4378 14.2963 27.7529C14.9057 28.2648 16.2664 29.0611 16.2914 29.1017C15.3982 31.3281 12.5433 31.9375 12.5433 31.9375C12.5433 31.9375 16.3165 34.2532 21.3836 34.8545C22.7276 35.017 24.1551 35.0576 25.6326 34.9032C27.9784 34.7163 30.3157 33.4975 32.0938 31.7831C35.9422 28.0617 35.9755 22.0002 32.1523 18.2463ZM30.4159 30.3043C28.9801 31.6856 26.8347 32.5631 25.1818 32.685C24.0131 32.7987 22.761 32.815 21.5589 32.6687C19.7892 32.4575 18.5119 31.9781 17.2598 31.5149C17.8942 30.9137 18.5286 30.0849 18.7874 29.3699C18.9544 28.9473 18.9377 28.4761 18.7373 28.0617C17.3933 25.3478 17.9777 22.0977 20.1899 19.9851C21.7926 18.4494 23.9965 17.7263 26.2337 17.9944C27.8782 18.1894 29.3724 18.8963 30.5411 20.042C33.3794 22.8371 33.2792 27.566 30.4159 30.3043Z" fill="#FFFFFF"/>
</svg>
