<svg width="46" height="46" viewBox="0 0 46 46" fill="none" xmlns="http://www.w3.org/2000/svg">
<path d="M18.2408 24.6907V24.6924H19.0809L18.2408 24.6907Z" fill="#FFFFFF"/>
<path d="M26.6416 24.6907V24.6924H27.4816L26.6416 24.6907Z" fill="#FFFFFF"/>
<path d="M36 22.1539C36 20.2873 34.4929 18.7693 32.6397 18.7693C31.8988 18.7693 31.1948 19.013 30.6202 19.4547C28.7451 18.1431 26.2887 17.3613 23.6761 17.1633L25.0858 13.8328L29.187 14.7975C29.318 16.0751 30.3799 17.077 31.682 17.077C33.0715 17.077 34.2022 15.9381 34.2022 14.5385C34.2022 13.139 33.0715 12.0001 31.682 12.0001C30.8016 12.0001 30.0271 12.4587 29.5768 13.1508L24.7833 12.0221C24.3767 11.929 23.9785 12.1372 23.8172 12.5145L21.8683 17.1176C19.0473 17.2158 16.3591 18.0162 14.3294 19.4107C13.7767 18.9977 13.0912 18.7693 12.3603 18.7693C10.5071 18.7693 9 20.2873 9 22.1539C9 23.391 9.67038 24.5096 10.6986 25.0833C10.6852 25.2322 10.6801 25.3845 10.6801 25.5385C10.6801 30.2042 15.9558 34 22.4412 34C28.9249 34 34.2022 30.2042 34.2022 25.5385C34.2022 25.4065 34.1972 25.2762 34.1888 25.1459C35.2843 24.584 36 23.4383 36 22.1539ZM31.682 13.6924C32.1441 13.6924 32.5221 14.0715 32.5221 14.5385C32.5221 15.0056 32.1441 15.3847 31.682 15.3847C31.22 15.3847 30.8419 15.0056 30.8419 14.5385C30.8419 14.0715 31.22 13.6924 31.682 13.6924ZM16.5607 24.6923C16.5607 23.7599 17.3151 23 18.2408 23C19.1666 23 19.921 23.7599 19.921 24.6923C19.921 25.6265 19.1666 26.3846 18.2408 26.3846C17.3151 26.3846 16.5607 25.6265 16.5607 24.6923ZM26.3207 30.3057C25.1614 31.1502 23.8004 31.5732 22.4412 31.5732C21.082 31.5732 19.721 31.1502 18.5617 30.3057C18.1854 30.0316 18.1014 29.5019 18.3736 29.1245C18.6457 28.7471 19.1716 28.6625 19.5463 28.9349C21.2785 30.1957 23.6039 30.1991 25.3361 28.9349C25.7108 28.6625 26.235 28.7437 26.5088 29.1245C26.781 29.5036 26.6953 30.0316 26.3207 30.3057ZM26.6416 26.3846C25.7141 26.3846 24.9614 25.6265 24.9614 24.6923C24.9614 23.7599 25.7141 23 26.6416 23C27.569 23 28.3217 23.7599 28.3217 24.6923C28.3217 25.6265 27.569 26.3846 26.6416 26.3846Z" fill="#FFFFFF"/>
</svg>
