<svg width="46" height="46" viewBox="0 0 46 46" fill="none" xmlns="http://www.w3.org/2000/svg">
<path d="M32.8264 20.9025C32.9239 20.292 32.9847 19.6226 33 18.872C32.9941 15.6536 31.4379 14.5147 31.1385 13.9808C31.5795 11.5422 31.0655 10.433 30.8264 10.0533C29.9446 9.74341 27.7585 10.853 26.5641 11.6341C24.6167 11.0698 20.5012 11.1249 18.9578 11.7802C16.1102 9.76155 14.6041 10.0693 14.6041 10.0693C14.6041 10.0693 13.6304 11.7979 14.3467 14.3267C13.4098 15.5088 12.7115 16.3445 12.7115 18.5612C12.7115 19.0921 12.7448 19.5938 12.8013 20.0765C13.6082 24.2767 16.9698 26.0887 20.272 26.4012C19.7751 26.775 19.1785 27.4824 19.096 28.3021C18.4716 28.7017 17.2157 28.8338 16.239 28.5298C14.8706 28.1018 14.3467 25.4189 12.2975 25.8016C11.854 25.8838 11.9422 26.1733 12.3262 26.4202C12.9505 26.8211 13.5385 27.3195 13.9917 28.3859C14.3398 29.2046 15.072 30.6665 17.3868 30.6665C18.3057 30.6665 18.9493 30.559 18.9493 30.559C18.9493 30.559 18.9668 32.6453 18.9668 33.4591C18.9668 34.3955 17.6903 34.6584 17.6903 35.1077C17.6903 35.2863 18.1128 35.3033 18.4524 35.3033C19.1234 35.3033 20.5195 34.75 20.5195 33.7766C20.5195 33.0032 20.532 30.4042 20.532 29.949C20.532 28.9545 21.0703 28.6378 21.0703 28.6378C21.0703 28.6378 21.1362 33.9467 20.9408 34.6585C20.7116 35.4955 20.2964 35.3766 20.2964 35.7491C20.2964 36.305 21.9748 35.885 22.5315 34.6682C22.9622 33.7178 22.7693 28.5116 22.7693 28.5116L23.2183 28.502C23.2183 28.502 23.2235 30.8863 23.208 31.9756C23.1918 33.1039 23.0743 34.5302 23.7511 35.2034C24.1954 35.6461 25.5566 36.423 25.5566 35.7131C25.5566 35.3016 24.6034 34.9616 24.6034 33.8469V28.7118C25.1825 28.7118 25.3021 30.3997 25.3021 30.3997L25.5109 33.5357C25.5109 33.5357 25.3723 34.68 26.7595 35.1575C27.2492 35.3274 28.2969 35.3735 28.346 35.0885C28.3952 34.8028 27.0845 34.3802 27.0721 33.4945C27.0653 32.9551 27.0965 32.6394 27.0965 30.293C27.0965 27.948 26.7783 27.0805 25.6694 26.3892C28.8849 26.0625 32.2248 24.6408 32.8264 20.9025Z" fill="#FFFFFF"/>
</svg>
