<svg width="46" height="46" viewBox="0 0 46 46" fill="none" xmlns="http://www.w3.org/2000/svg">
<path d="M35 23.1013V32H29.856V23.6973C29.856 21.6115 29.112 20.1881 27.2501 20.1881C25.8287 20.1881 24.9828 21.1474 24.6107 22.0754C24.475 22.4071 24.4401 22.8688 24.4401 23.3332V32H19.2944C19.2944 32 19.3637 17.9379 19.2944 16.481H24.4396V18.6807C24.4291 18.6972 24.4156 18.7149 24.4058 18.7309H24.4396V18.6807C25.1232 17.6248 26.344 16.1164 29.0766 16.1164C32.462 16.1163 35 18.3344 35 23.1013ZM13.9117 9C12.1514 9 11 10.158 11 11.6808C11 13.1704 12.1181 14.3636 13.8434 14.3636H13.8778C15.6723 14.3636 16.7882 13.1706 16.7882 11.6808C16.7544 10.158 15.6723 9 13.9117 9ZM11.3056 32H16.4494V16.481H11.3056V32Z" fill="#FFFFFF"/>
</svg>
