<svg width="36" height="42" viewBox="0 0 36 42" fill="none" xmlns="http://www.w3.org/2000/svg">
<path d="M16.6491 23.7276C19.9351 25.6453 21.0304 29.8494 19.1319 33.1684L16.0649 38.5526C14.1663 41.8716 10.0041 42.9779 6.71807 41.0603C3.43206 39.1426 2.33673 34.9385 4.23531 31.6195L7.30225 26.3091C9.1278 22.9901 13.3631 21.81 16.6491 23.7276ZM15.3347 26.0141C13.2171 24.7602 10.4422 25.5715 9.20083 27.858L6.499 32.5784C5.1846 34.791 5.8418 37.5938 7.95945 38.8476C10.0771 40.1015 12.8519 39.2901 14.0933 37.0037L16.7951 32.2833C18.1095 30.0707 17.4523 27.1942 15.3347 26.0141Z" fill="#48546D"/>
<path d="M8.32454 5.80493L17.5984 21.81L8.61663 37.52L0 20.4086L8.32454 5.80493Z" fill="#1E3569"/>
<path d="M36.0001 21.9575L17.5984 21.8838L8.6167 37.52L27.6755 36.4874L36.0001 21.9575Z" fill="#96C9FD"/>
<path d="M26.58 6.09996L35.9269 21.9575L17.5253 21.8837L8.32446 5.80493L26.58 6.09996Z" fill="url(#paint0_linear)"/>
<path d="M19.4971 18.7859C22.7831 20.7036 27.0184 19.5972 28.8439 16.2782L28.5518 16.7208L28.99 15.9095C29.3551 15.3194 28.917 14.8769 28.3328 14.5818C27.7486 14.2131 27.1644 14.1393 26.8723 14.7294L26.5802 15.2456L26.8723 14.8031C25.5579 17.0895 22.8561 17.9009 20.7385 16.647C18.6208 15.3932 17.9636 12.5904 19.205 10.304L18.9859 10.6728L19.278 10.1565C19.6431 9.56644 19.205 9.1239 18.6208 8.82888C18.0366 8.4601 17.4524 8.38634 17.1604 8.97639L16.8683 9.49268L16.9413 9.34517C15.0427 12.5904 16.2111 16.8683 19.4971 18.7859Z" fill="url(#paint1_linear)"/>
<path d="M29.6469 0.937046C32.9329 2.8547 34.0283 7.05879 32.1297 10.3778L29.6469 14.6557L29.2818 15.467C28.9167 16.057 28.4055 15.9095 27.8214 15.6145C27.2372 15.2457 26.8721 14.8769 27.1642 14.2869L27.4562 13.7706L29.866 9.49273C31.1804 7.2063 30.4502 4.40358 28.3325 3.14972C26.2149 1.89587 23.44 2.70719 22.1986 4.99362L19.7889 9.27147L19.4968 9.78776C19.1317 10.3778 18.6205 10.2303 18.0364 9.93527C17.4522 9.56649 17.0871 9.19771 17.3792 8.60766L17.6713 8.09137L20.3001 3.5185C22.1986 0.125731 26.3609 -0.980608 29.6469 0.937046Z" fill="#48546D"/>
<defs>
<linearGradient id="paint0_linear" x1="26.6152" y1="6.07862" x2="17.458" y2="21.7811" gradientUnits="userSpaceOnUse">
<stop stop-color="#9AACB8"/>
<stop offset="1" stop-color="white"/>
</linearGradient>
<linearGradient id="paint1_linear" x1="19.4617" y1="18.7589" x2="23.571" y2="11.7124" gradientUnits="userSpaceOnUse">
<stop stop-color="#9AACB8" stop-opacity="0.014"/>
<stop offset="1" stop-color="#283655" stop-opacity="0.514"/>
</linearGradient>
</defs>
</svg>
