<svg width="46" height="46" viewBox="0 0 46 46" fill="none" xmlns="http://www.w3.org/2000/svg">
<path d="M36.6698 15.8574H35.1981C34.815 15.8574 33.8123 16.2737 33.8123 16.628V29.4964C33.8123 29.8517 34.815 30.1429 35.1981 30.1429H36.6698V33H27.1448V30.1429H29.0502V16.8093H28.7187L24.1335 32.9999H20.5836L16.0578 16.8093H15.715V30.1429H17.6196V32.9999H10V30.1429H11.0568C11.4717 30.1429 11.9047 29.8517 11.9047 29.4964V16.628C11.9047 16.2736 11.4717 15.8574 11.0568 15.8574H10V13H19.8748L23.099 24.4284H23.1858L26.4418 13H36.6698V15.8574Z" fill="#FFFFFF"/>
</svg>
