<svg width="46" height="46" viewBox="0 0 46 46" fill="none" xmlns="http://www.w3.org/2000/svg">
<path d="M37.0883 16.5297C36.1027 16.9667 35.0424 17.2623 33.9305 17.3944C35.0658 16.7142 35.937 15.6379 36.3482 14.3534C35.2859 14.9836 34.1088 15.4407 32.8571 15.6871C31.8543 14.6191 30.4254 13.9516 28.8433 13.9516C25.8076 13.9516 23.3456 16.4136 23.3456 19.4493C23.3456 19.8802 23.3944 20.2996 23.4887 20.7022C18.9197 20.473 14.8685 18.2845 12.1568 14.9573C11.6837 15.7691 11.4122 16.7142 11.4122 17.7215C11.4122 19.6284 12.3835 21.3119 13.8579 22.2975C12.9571 22.2692 12.1088 22.022 11.368 21.6091C11.3675 21.6325 11.3675 21.6559 11.3675 21.6788C11.3675 24.3426 13.2634 26.5643 15.7779 27.0691C15.317 27.1953 14.8304 27.2622 14.3298 27.2622C13.9747 27.2622 13.6307 27.2281 13.2954 27.1642C13.9948 29.3478 16.0247 30.9374 18.431 30.9821C16.5491 32.4568 14.1789 33.3354 11.6025 33.3354C11.1597 33.3354 10.721 33.3096 10.2917 33.2584C12.7234 34.8188 15.6139 35.7286 18.7184 35.7286C28.8305 35.7286 34.3606 27.3515 34.3606 20.086C34.3606 19.8478 34.3552 19.6104 34.3446 19.3751C35.4196 18.6002 36.3515 17.6322 37.0883 16.5297Z" fill="#FFFFFF"/>
</svg>
