<svg width="46" height="46" fill="none" xmlns="http://www.w3.org/2000/svg"><path d="M32.152 18.246a9.866 9.866 0 0 0-3.464-2.202c.735-2.12 3.339-2.892 3.339-2.892s-6.077-3.096-12.789-1.861c-2.237.35-4.382 1.698-5.952 3.478-3.406 3.86-2.955 9.669 1.01 12.984.61.512 1.97 1.308 1.995 1.349-.893 2.226-3.748 2.835-3.748 2.835s3.774 2.316 8.84 2.918c1.345.162 2.772.203 4.25.048 2.345-.187 4.683-1.405 6.46-3.12a9.4 9.4 0 0 0 .06-13.537zm-1.736 12.058c-1.436 1.382-3.581 2.26-5.234 2.381-1.169.114-2.421.13-3.623-.016-1.77-.211-3.047-.69-4.3-1.154.635-.601 1.27-1.43 1.528-2.145.167-.423.15-.894-.05-1.308-1.344-2.714-.76-5.964 1.453-8.077 1.603-1.536 3.806-2.259 6.044-1.99a7.333 7.333 0 0 1 4.307 2.047c2.838 2.795 2.738 7.524-.125 10.262z" fill="#FFF"/></svg>