<svg width="46" height="46" fill="none" xmlns="http://www.w3.org/2000/svg"><path d="M18.24 24.69v.002h.84l-.84-.001zm8.402 0v.002h.84l-.84-.001z" fill="#FFF"/><path d="M36 22.154c0-1.867-1.507-3.385-3.36-3.385-.741 0-1.445.244-2.02.686-1.875-1.312-4.331-2.094-6.944-2.292l1.41-3.33 4.101.964c.131 1.278 1.193 2.28 2.495 2.28 1.39 0 2.52-1.139 2.52-2.539A2.532 2.532 0 0 0 31.682 12a2.51 2.51 0 0 0-2.105 1.15l-4.794-1.128a.838.838 0 0 0-.966.492l-1.949 4.604c-2.82.098-5.509.898-7.539 2.293a3.275 3.275 0 0 0-1.969-.642c-1.853 0-3.36 1.518-3.36 3.385 0 1.237.67 2.356 1.699 2.93a5.09 5.09 0 0 0-.019.454c0 4.666 5.276 8.462 11.761 8.462 6.484 0 11.761-3.796 11.761-8.462 0-.131-.005-.262-.013-.392A3.355 3.355 0 0 0 36 22.154zm-4.318-8.462c.462 0 .84.38.84.847a.845.845 0 0 1-.84.846.845.845 0 0 1-.84-.846c0-.467.378-.847.84-.847zm-15.121 11A1.69 1.69 0 0 1 18.24 23c.926 0 1.68.76 1.68 1.692 0 .934-.754 1.693-1.68 1.693-.926 0-1.68-.759-1.68-1.693zm9.76 5.614a6.581 6.581 0 0 1-3.88 1.267 6.588 6.588 0 0 1-3.88-1.267.85.85 0 0 1-.187-1.181.838.838 0 0 1 1.172-.19 4.899 4.899 0 0 0 5.79 0 .836.836 0 0 1 1.173.19.85.85 0 0 1-.188 1.18zm.32-3.921c-.927 0-1.68-.759-1.68-1.693 0-.932.753-1.692 1.68-1.692.928 0 1.68.76 1.68 1.692 0 .934-.752 1.693-1.68 1.693z" fill="#FFF"/></svg>