<svg xmlns="http://www.w3.org/2000/svg" viewBox="0 0 612.074 612.074"><path d="M612.074 132.141v-2.38c0-8.849-4.016-19.26-11.229-26.473l-.818-.818s-.818 0-.818-.818c-1.636-1.636-3.198-2.38-4.833-4.016-.818 0-.818-.818-1.636-.818-1.636-.818-4.016-1.636-5.652-2.38-.818 0-.818-.818-1.636-.818-2.38-.818-4.833-1.636-7.213-1.636h-1.636c-2.38 0-5.651-.818-8.849-.818H43.427c-3.198 0-6.395 0-9.667.818-.818 0-1.636 0-2.38.818-2.38.818-4.834.818-6.395 1.636-.818 0-.818.818-1.636.818-1.636.818-4.016 1.636-5.652 2.38l-.818.818c-1.636.818-3.198 2.38-4.834 3.198l-2.38 2.38C4.016 110.428.818 117.715 0 125.746v360.656c1.636 11.229 7.213 20.896 15.244 26.473 7.213 4.833 16.062 8.031 26.473 8.031h528.491c2.38 0 5.651 0 8.031-.818h1.636c2.38-.818 4.834-.818 6.395-1.636h.818c17.698-6.395 24.911-21.714 24.911-36.14V132.885c.075.074.075.074.075-.744zm-51.384-11.228l-252.98 246.51-57.854-56.218L51.459 120.838H560.69v.075zM29.819 475.099V140.991l187.095 179.882L29.819 475.099zm269.86 16.806H56.292l182.336-149.393 58.597 57.036c2.38 2.38 4.834 3.198 7.213 4.016h4.908c2.38-.818 5.651-1.636 7.213-4.016l55.4-53.838 183.079 146.196H299.679zm282.65-16.062L394.417 324.07l187.912-183.08v334.853z" fill="#FFF"/></svg>