<svg width="46" height="46" fill="none" xmlns="http://www.w3.org/2000/svg"><path d="M32.826 20.902c.098-.61.159-1.28.174-2.03-.006-3.218-1.562-4.357-1.861-4.891.44-2.439-.073-3.548-.313-3.928-.881-.31-3.067.8-4.262 1.581-1.947-.564-6.063-.51-7.606.146-2.848-2.018-4.354-1.71-4.354-1.71s-.974 1.728-.257 4.257c-.937 1.182-1.636 2.018-1.636 4.234 0 .531.034 1.033.09 1.515.807 4.2 4.169 6.013 7.471 6.325-.497.374-1.093 1.081-1.176 1.901-.624.4-1.88.532-2.857.228-1.368-.428-1.892-3.111-3.942-2.728-.443.082-.355.371.03.618.623.401 1.212.9 1.665 1.966.348.819 1.08 2.28 3.395 2.28.919 0 1.562-.107 1.562-.107s.018 2.086.018 2.9c0 .936-1.277 1.2-1.277 1.649 0 .178.423.195.762.195.671 0 2.067-.553 2.067-1.526 0-.774.013-3.373.013-3.828 0-.995.538-1.311.538-1.311s.066 5.309-.13 6.02c-.228.837-.644.719-.644 1.091 0 .556 1.679.136 2.236-1.08.43-.951.237-6.157.237-6.157l.45-.01s.005 2.384-.011 3.474c-.016 1.128-.134 2.554.543 3.227.444.443 1.806 1.22 1.806.51 0-.411-.954-.751-.954-1.866v-5.135c.58 0 .7 1.688.7 1.688l.208 3.136s-.139 1.144 1.248 1.621c.49.17 1.538.217 1.587-.068.05-.286-1.262-.709-1.274-1.594-.007-.54.024-.856.024-3.202 0-2.345-.318-3.212-1.427-3.904 3.216-.326 6.556-1.748 7.157-5.486z" fill="#FFF"/></svg>