<svg width="46" height="46" fill="none" xmlns="http://www.w3.org/2000/svg"><path d="M35 23.101V32h-5.144v-8.303c0-2.085-.744-3.509-2.606-3.509-1.421 0-2.267.96-2.64 1.887-.135.332-.17.794-.17 1.258V32h-5.146s.07-14.062 0-15.519h5.146v2.2l-.034.05h.034v-.05c.683-1.056 1.904-2.565 4.637-2.565 3.385 0 5.923 2.218 5.923 6.985zM13.912 9C12.152 9 11 10.158 11 11.68c0 1.49 1.118 2.684 2.843 2.684h.035c1.794 0 2.91-1.193 2.91-2.683C16.754 10.158 15.672 9 13.912 9zm-2.606 23h5.143V16.481h-5.143V32z" fill="#FFF"/></svg>