<svg width="36" height="42" fill="none" xmlns="http://www.w3.org/2000/svg"><path d="M16.65 23.728c3.285 1.917 4.38 6.121 2.482 9.44l-3.067 5.385a6.778 6.778 0 0 1-9.347 2.507c-3.286-1.917-4.381-6.122-2.483-9.44l3.067-5.31c1.826-3.32 6.061-4.5 9.347-2.582zm-1.315 2.286c-2.118-1.254-4.893-.442-6.134 1.844l-2.702 4.72c-1.314 2.213-.657 5.016 1.46 6.27 2.118 1.254 4.893.442 6.134-1.844l2.702-4.72c1.314-2.213.657-5.09-1.46-6.27z" fill="#48546D"/><path d="M8.325 5.805l9.273 16.005-8.981 15.71L0 20.409 8.325 5.805z" fill="#1E3569"/><path d="M36 21.957l-18.402-.073L8.617 37.52l19.058-1.033L36 21.957z" fill="#96C9FD"/><path d="M26.58 6.1l9.347 15.858-18.402-.074-9.2-16.08L26.58 6.1z" fill="url(#paint0_linear)"/><path d="M19.497 18.786c3.286 1.918 7.521.811 9.347-2.508l-.292.443.438-.812c.365-.59-.073-1.032-.657-1.327-.584-.369-1.169-.443-1.46.147l-.293.517.292-.443c-1.314 2.287-4.016 3.098-6.134 1.844-2.117-1.254-2.774-4.057-1.533-6.343l-.22.369.293-.517c.365-.59-.073-1.032-.657-1.327-.584-.369-1.169-.443-1.46.147l-.293.517.073-.148c-1.898 3.245-.73 7.523 2.556 9.44z" fill="url(#paint1_linear)"/><path d="M29.647.937c3.286 1.918 4.381 6.122 2.483 9.44l-2.483 4.279-.365.811c-.365.59-.877.442-1.46.147-.585-.368-.95-.737-.658-1.327l.292-.516 2.41-4.278c1.314-2.287.584-5.09-1.534-6.343-2.117-1.254-4.892-.443-6.133 1.844l-2.41 4.277-.292.517c-.365.59-.877.442-1.46.147-.585-.369-.95-.737-.658-1.327l.292-.517 2.63-4.572c1.898-3.393 6.06-4.5 9.346-2.582z" fill="#48546D"/><defs><linearGradient id="paint0_linear" x1="26.615" y1="6.079" x2="17.458" y2="21.781" gradientUnits="userSpaceOnUse"><stop stop-color="#9AACB8"/><stop offset="1" stop-color="#fff"/></linearGradient><linearGradient id="paint1_linear" x1="19.462" y1="18.759" x2="23.571" y2="11.712" gradientUnits="userSpaceOnUse"><stop stop-color="#9AACB8" stop-opacity=".014"/><stop offset="1" stop-color="#283655" stop-opacity=".514"/></linearGradient></defs></svg>