<svg width="46" height="46" fill="none" xmlns="http://www.w3.org/2000/svg"><path d="M37.088 16.53c-.985.437-2.046.732-3.157.864a5.513 5.513 0 0 0 2.417-3.04 11.005 11.005 0 0 1-3.49 1.333 5.492 5.492 0 0 0-4.015-1.735 5.498 5.498 0 0 0-5.354 6.75 15.606 15.606 0 0 1-11.332-5.745 5.475 5.475 0 0 0-.745 2.764c0 1.907.971 3.59 2.446 4.576a5.458 5.458 0 0 1-2.49-.688v.07a5.501 5.501 0 0 0 4.41 5.39 5.482 5.482 0 0 1-2.483.095 5.503 5.503 0 0 0 5.136 3.818 11.03 11.03 0 0 1-6.829 2.353c-.442 0-.881-.025-1.31-.077a15.551 15.551 0 0 0 8.426 2.47c10.113 0 15.643-8.377 15.643-15.642 0-.238-.006-.476-.016-.71a11.15 11.15 0 0 0 2.743-2.846z" fill="#FFF"/></svg>